<svg width="1152" height="674" xmlns="http://www.w3.org/2000/svg" xmlns:xlink="http://www.w3.org/1999/xlink" overflow="hidden"><defs><clipPath id="clip0"><path d="M49 23 1201 23 1201 697 49 697Z" fill-rule="evenodd" clip-rule="evenodd"/></clipPath></defs><g clip-path="url(#clip0)" transform="translate(-49 -23)"><path d="M437.5 101.5 484.069 101.5 484.069 616.506 717.5 616.506 717.5 660.5 437.5 660.5Z" stroke="#000000" stroke-width="1.33333" stroke-miterlimit="8" fill-rule="evenodd"/><path d="M521.5 383.5 566.789 383.5 566.789 534.373 673.5 534.373 673.5 578.5 521.5 578.5Z" stroke="#000000" stroke-width="1.33333" stroke-miterlimit="8" fill-rule="evenodd"/><path d="M522.5 101.5 567.49 101.5 567.49 252.663 673.5 252.663 673.5 296.5 522.5 296.5Z" stroke="#000000" stroke-width="1.33333" stroke-miterlimit="8" fill-rule="evenodd"/><path d="M864.5 660.5 819.457 660.5 819.457 146.71 566.5 146.71 566.5 101.5 864.5 101.5Z" stroke="#000000" stroke-width="1.33333" stroke-miterlimit="8" fill-rule="evenodd"/><rect x="521.5" y="340.5" width="197" height="45" stroke="#000000" stroke-width="1.33333" stroke-miterlimit="8"/><path d="M857.5 660.5 857.5 614.479 1148.53 614.479 1148.53 409.5 1193.5 409.5 1193.5 660.5Z" stroke="#000000" stroke-width="1.33333" stroke-miterlimit="8" fill-rule="evenodd"/><path d="M948.5 585.5 948.5 544.002 1076.08 544.002 1076.08 449.5 1116.5 449.5 1116.5 585.5Z" stroke="#000000" stroke-width="1.33333" stroke-miterlimit="8" fill-rule="evenodd"/><path d="M1115.5 227.5 1075.01 227.5 1075.01 143.57 948.5 143.57 948.5 102.5 1115.5 102.5Z" stroke="#000000" stroke-width="1.33333" stroke-miterlimit="8" fill-rule="evenodd"/><rect x="902.5" y="102.5" width="46" height="483" stroke="#000000" stroke-width="1.33333" stroke-miterlimit="8"/><path d="M1192.5 267.5 1145.76 267.5 1145.76 76.7698 88.5001 76.7698 88.5001 31.5001 1192.5 31.5001Z" stroke="#000000" stroke-width="1.33333" stroke-miterlimit="8" fill-rule="evenodd"/><path d="M271.5 659.5 227.249 659.5 227.249 145.957 127.5 145.957 127.5 101.5 271.5 101.5Z" stroke="#000000" stroke-width="1.33333" stroke-miterlimit="8" fill-rule="evenodd"/><path d="M439.5 101.5 439.5 147.809 352.88 147.809 352.88 617.5 308.5 617.5 308.5 101.5Z" stroke="#000000" stroke-width="1.33333" stroke-miterlimit="8" fill-rule="evenodd"/><path d="M81.5001 123C81.5001 106.155 94.9315 92.5001 111.5 92.5001 128.069 92.5001 141.5 106.155 141.5 123 141.5 139.845 128.069 153.5 111.5 153.5 94.9315 153.5 81.5001 139.845 81.5001 123Z" stroke="#000000" stroke-width="1.33333" stroke-miterlimit="8" fill-rule="evenodd"/><path d="M93.5001 122.5C93.5001 112.559 101.559 104.5 111.5 104.5 121.441 104.5 129.5 112.559 129.5 122.5 129.5 132.441 121.441 140.5 111.5 140.5 101.559 140.5 93.5001 132.441 93.5001 122.5Z" stroke="#000000" stroke-width="1.33333" stroke-miterlimit="8" fill="#FFFFFF" fill-rule="evenodd"/><path d="M50.5001 55.5001C50.5001 38.9315 64.1554 25.5001 81.0001 25.5001 97.8447 25.5001 111.5 38.9315 111.5 55.5001 111.5 72.0686 97.8447 85.5001 81.0001 85.5001 64.1554 85.5001 50.5001 72.0686 50.5001 55.5001Z" stroke="#000000" stroke-width="1.33333" stroke-miterlimit="8" fill-rule="evenodd"/><path d="M63.5001 55.5001C63.5001 45.5589 71.3351 37.5001 81.0001 37.5001 90.665 37.5001 98.5001 45.5589 98.5001 55.5001 98.5001 65.4412 90.665 73.5 81.0001 73.5 71.3351 73.5 63.5001 65.4412 63.5001 55.5001Z" stroke="#000000" stroke-width="1.33333" stroke-miterlimit="8" fill="#FFFFFF" fill-rule="evenodd"/><path d="M218.5 665.5C218.5 648.932 231.932 635.5 248.5 635.5 265.069 635.5 278.5 648.932 278.5 665.5 278.5 682.069 265.069 695.5 248.5 695.5 231.932 695.5 218.5 682.069 218.5 665.5Z" stroke="#000000" stroke-width="1.33333" stroke-miterlimit="8" fill-rule="evenodd"/><path d="M230.5 665C230.5 655.335 238.559 647.5 248.5 647.5 258.441 647.5 266.5 655.335 266.5 665 266.5 674.665 258.441 682.5 248.5 682.5 238.559 682.5 230.5 674.665 230.5 665Z" stroke="#000000" stroke-width="1.33333" stroke-miterlimit="8" fill="#FFFFFF" fill-rule="evenodd"/><path d="M301.5 635.5C301.5 618.932 315.155 605.5 332 605.5 348.845 605.5 362.5 618.932 362.5 635.5 362.5 652.069 348.845 665.5 332 665.5 315.155 665.5 301.5 652.069 301.5 635.5Z" stroke="#000000" stroke-width="1.33333" stroke-miterlimit="8" fill-rule="evenodd"/><path d="M313.5 635.5C313.5 625.559 321.559 617.5 331.5 617.5 341.441 617.5 349.5 625.559 349.5 635.5 349.5 645.441 341.441 653.5 331.5 653.5 321.559 653.5 313.5 645.441 313.5 635.5Z" stroke="#000000" stroke-width="1.33333" stroke-miterlimit="8" fill="#FFFFFF" fill-rule="evenodd"/><path d="M660.5 555C660.5 538.155 674.155 524.5 691 524.5 707.845 524.5 721.5 538.155 721.5 555 721.5 571.845 707.845 585.5 691 585.5 674.155 585.5 660.5 571.845 660.5 555Z" stroke="#000000" stroke-width="1.33333" stroke-miterlimit="8" fill-rule="evenodd"/><path d="M673.5 554.5C673.5 544.559 681.335 536.5 691 536.5 700.665 536.5 708.5 544.559 708.5 554.5 708.5 564.441 700.665 572.5 691 572.5 681.335 572.5 673.5 564.441 673.5 554.5Z" stroke="#000000" stroke-width="1.33333" stroke-miterlimit="8" fill="#FFFFFF" fill-rule="evenodd"/><path d="M688.5 638.5C688.5 621.932 702.155 608.5 719 608.5 735.845 608.5 749.5 621.932 749.5 638.5 749.5 655.069 735.845 668.5 719 668.5 702.155 668.5 688.5 655.069 688.5 638.5Z" stroke="#000000" stroke-width="1.33333" stroke-miterlimit="8" fill-rule="evenodd"/><path d="M701.5 638.5C701.5 628.559 709.559 620.5 719.5 620.5 729.441 620.5 737.5 628.559 737.5 638.5 737.5 648.441 729.441 656.5 719.5 656.5 709.559 656.5 701.5 648.441 701.5 638.5Z" stroke="#000000" stroke-width="1.33333" stroke-miterlimit="8" fill="#FFFFFF" fill-rule="evenodd"/><path d="M688.5 359.5C688.5 342.932 702.155 329.5 719 329.5 735.845 329.5 749.5 342.932 749.5 359.5 749.5 376.069 735.845 389.5 719 389.5 702.155 389.5 688.5 376.069 688.5 359.5Z" stroke="#000000" stroke-width="1.33333" stroke-miterlimit="8" fill-rule="evenodd"/><path d="M700.5 359C700.5 349.335 708.559 341.5 718.5 341.5 728.441 341.5 736.5 349.335 736.5 359 736.5 368.665 728.441 376.5 718.5 376.5 708.559 376.5 700.5 368.665 700.5 359Z" stroke="#000000" stroke-width="1.33333" stroke-miterlimit="8" fill="#FFFFFF" fill-rule="evenodd"/><path d="M660.5 274C660.5 257.155 674.155 243.5 691 243.5 707.845 243.5 721.5 257.155 721.5 274 721.5 290.845 707.845 304.5 691 304.5 674.155 304.5 660.5 290.845 660.5 274Z" stroke="#000000" stroke-width="1.33333" stroke-miterlimit="8" fill-rule="evenodd"/><path d="M673.5 273.5C673.5 263.559 681.335 255.5 691 255.5 700.665 255.5 708.5 263.559 708.5 273.5 708.5 283.441 700.665 291.5 691 291.5 681.335 291.5 673.5 283.441 673.5 273.5Z" stroke="#000000" stroke-width="1.33333" stroke-miterlimit="8" fill="#FFFFFF" fill-rule="evenodd"/><path d="M1063.5 432.5C1063.5 415.932 1077.16 402.5 1094 402.5 1110.84 402.5 1124.5 415.932 1124.5 432.5 1124.5 449.069 1110.84 462.5 1094 462.5 1077.16 462.5 1063.5 449.069 1063.5 432.5Z" stroke="#000000" stroke-width="1.33333" stroke-miterlimit="8" fill-rule="evenodd"/><path d="M1076.5 431.5C1076.5 421.559 1084.56 413.5 1094.5 413.5 1104.44 413.5 1112.5 421.559 1112.5 431.5 1112.5 441.441 1104.44 449.5 1094.5 449.5 1084.56 449.5 1076.5 441.441 1076.5 431.5Z" stroke="#000000" stroke-width="1.33333" stroke-miterlimit="8" fill="#FFFFFF" fill-rule="evenodd"/><path d="M1063.5 243C1063.5 226.155 1077.16 212.5 1094 212.5 1110.84 212.5 1124.5 226.155 1124.5 243 1124.5 259.845 1110.84 273.5 1094 273.5 1077.16 273.5 1063.5 259.845 1063.5 243Z" stroke="#000000" stroke-width="1.33333" stroke-miterlimit="8" fill-rule="evenodd"/><path d="M1076.5 242.5C1076.5 232.559 1084.56 224.5 1094.5 224.5 1104.44 224.5 1112.5 232.559 1112.5 242.5 1112.5 252.441 1104.44 260.5 1094.5 260.5 1084.56 260.5 1076.5 252.441 1076.5 242.5Z" stroke="#000000" stroke-width="1.33333" stroke-miterlimit="8" fill="#FFFFFF" fill-rule="evenodd"/><path d="M1139.5 280C1139.5 263.155 1153.16 249.5 1170 249.5 1186.84 249.5 1200.5 263.155 1200.5 280 1200.5 296.845 1186.84 310.5 1170 310.5 1153.16 310.5 1139.5 296.845 1139.5 280Z" stroke="#000000" stroke-width="1.33333" stroke-miterlimit="8" fill-rule="evenodd"/><path d="M1152.5 279.5C1152.5 269.559 1160.33 261.5 1170 261.5 1179.67 261.5 1187.5 269.559 1187.5 279.5 1187.5 289.441 1179.67 297.5 1170 297.5 1160.33 297.5 1152.5 289.441 1152.5 279.5Z" stroke="#000000" stroke-width="1.33333" stroke-miterlimit="8" fill="#FFFFFF" fill-rule="evenodd"/><path d="M1139.5 396C1139.5 379.155 1153.16 365.5 1170 365.5 1186.84 365.5 1200.5 379.155 1200.5 396 1200.5 412.845 1186.84 426.5 1170 426.5 1153.16 426.5 1139.5 412.845 1139.5 396Z" stroke="#000000" stroke-width="1.33333" stroke-miterlimit="8" fill-rule="evenodd"/><path d="M1152.5 395.5C1152.5 385.559 1160.56 377.5 1170.5 377.5 1180.44 377.5 1188.5 385.559 1188.5 395.5 1188.5 405.441 1180.44 413.5 1170.5 413.5 1160.56 413.5 1152.5 405.441 1152.5 395.5Z" stroke="#000000" stroke-width="1.33333" stroke-miterlimit="8" fill="#FFFFFF" fill-rule="evenodd"/></g></svg>